<svg width="256" height="350" viewBox="0 0 256 350" fill="none" xmlns="http://www.w3.org/2000/svg">
<path d="M217.707 348.704C214.02 347.902 211.277 346.388 208.553 343.652C205.599 340.686 204.222 338.044 202.362 331.772C201.626 329.289 200.709 326.436 200.325 325.43L199.625 323.603L199.395 326.371C199.268 327.893 198.692 331.323 198.116 333.992L197.068 338.845L196.633 334.744C196.107 329.796 195.619 327.762 194.067 324.06C191.809 318.673 187.196 311.754 183.535 308.261L181.761 306.568L182.394 308.073C184.675 313.489 185.366 317.526 185.099 323.872C184.855 329.669 184.05 332.871 181.597 337.791C179.443 342.113 178.641 343.126 177.877 342.492C177.419 342.112 177.315 342.133 177.315 342.608C177.315 342.928 177.561 343.245 177.862 343.312C178.314 343.413 178.287 343.595 177.71 344.356C177.103 345.154 176.927 345.209 176.393 344.766C176.053 344.484 175.861 344.032 175.965 343.761C176.069 343.489 175.904 343.017 175.598 342.711C175.107 342.221 175.109 341.642 175.614 337.791C177.74 321.575 174.195 309.649 163.817 298.104L162.296 296.411L164.299 300.449C168.434 308.786 169.591 314.205 169.298 323.872C169.192 327.39 168.887 331.114 168.622 332.148L168.139 334.029L167.861 331.772C167.179 326.243 163.868 318.228 159.468 311.453C158.391 309.795 155.301 305.791 152.602 302.555C142.996 291.037 139.182 285.263 137.011 278.954C136.054 276.175 136.119 275.963 137.533 277.254C139.114 278.698 140.382 279.569 144.656 282.147C147.888 284.096 148.069 284.163 146.991 283C146.348 282.307 144.801 280.64 143.554 279.295C134.018 269.014 128.828 261.634 123.899 251.347C118.373 239.814 116.46 231.892 115.841 217.977L115.649 213.651L116.717 217.823C118.776 225.862 122.76 232.634 130.166 240.685C138.221 249.44 139.63 251.669 146.773 266.945C150.143 274.152 155.204 280.949 161.139 286.235C163.062 287.949 169.555 292.522 172.3 294.097C172.542 294.235 171.182 292.782 169.279 290.866C167.376 288.95 164.928 286.198 163.84 284.749C161.252 281.304 157.958 274.607 157.006 270.856C156.161 267.524 155.375 260.446 155.562 257.852L155.684 256.159L156.377 258.228C157.263 260.873 159.857 265.497 162.564 269.256C165.177 272.886 172.004 279.523 176.014 282.332C177.66 283.485 181.8 286.363 185.214 288.727C197.374 297.147 204.577 305.768 207.823 315.784L208.859 318.982L208.886 313.398C208.919 306.729 208.127 302.217 205.873 296.236C201.429 284.444 195.69 277.745 182.372 268.802C173.285 262.7 170.801 260.717 166.3 255.976C158.877 248.155 153.821 239.374 152.116 231.344L151.48 228.348L151.234 230.441C150.744 234.61 152.136 241.566 154.227 245.401C154.724 246.312 155.067 247.121 154.989 247.199C154.689 247.499 146.926 239.017 144.854 236.126C136.205 224.056 132.033 211.343 132.049 197.099C132.058 189.993 132.443 187.244 134.795 177.532C136.572 170.194 137.482 165.128 137.179 164.264C136.527 162.409 137.918 164.891 139.842 169.017C144.01 177.954 145.559 183.946 147.043 196.882C147.861 204.015 149.237 210.924 150.172 212.594C150.37 212.948 150.587 211.548 150.746 208.893C150.886 206.544 151.346 202.506 151.768 199.92C152.663 194.433 153.098 183.807 152.56 180.547C152.355 179.305 152.234 178.239 152.292 178.178C152.464 177.994 156.457 184.508 157.664 186.942C160.679 193.02 161.736 197.944 162.465 209.295C163.251 221.534 164.282 226.288 167.767 233.739C171.034 240.725 176.158 247.329 181.918 251.973C183.833 253.518 185.465 254.717 185.545 254.637C185.624 254.558 184.811 253.531 183.736 252.356C180.66 248.99 176.758 242.793 173.34 235.846C168.076 225.145 166.545 219.21 166.886 210.829C167.081 206.031 169.368 191.048 169.828 191.558C170.421 192.214 172.803 199.313 173.205 201.62C173.447 203.011 173.565 205.401 173.467 206.932C173.369 208.462 173.365 209.637 173.46 209.543C174.519 208.484 178.763 200.807 179.82 198.039C181.214 194.387 184.071 188.494 184.325 188.748C184.402 188.826 184.296 189.786 184.088 190.882C183.88 191.978 183.718 193.741 183.727 194.799L183.745 196.723L184.411 195.03C185.521 192.205 190.524 182.974 190.84 183.169C191.002 183.269 191.256 184.244 191.404 185.335L191.674 187.318L192.61 184.998C193.878 181.853 195.671 179.788 196.817 180.152C197.287 180.301 197.951 181.009 198.292 181.724L198.913 183.026L199.758 181.41C200.224 180.521 200.612 179.496 200.621 179.131C200.636 178.548 200.919 178.608 202.926 179.622C204.185 180.257 205.976 181.539 206.908 182.47L208.601 184.164L208.476 181.525L208.35 178.885L209.587 180.086C210.267 180.746 211.325 182.29 211.938 183.516C212.849 185.338 213.052 186.218 213.052 188.334C213.052 191.84 212.173 193.527 209.567 195.022C207.53 196.19 205.947 196.617 207.094 195.688C207.897 195.039 208.914 193.46 208.914 192.864C208.914 192.592 208.38 192.979 207.727 193.722C206.734 194.853 204.195 196.534 203.48 196.534C203.371 196.534 203.618 195.984 204.028 195.312C204.438 194.639 204.774 193.591 204.775 192.981C204.775 191.9 204.749 191.915 203.668 193.62C202.942 194.765 201.877 195.757 200.579 196.498C199.49 197.121 198.535 197.566 198.457 197.488C198.379 197.41 198.654 196.867 199.068 196.282C199.483 195.697 199.93 194.795 200.061 194.277C200.29 193.379 200.263 193.387 199.447 194.465C197.625 196.875 195.294 198.75 190.419 201.728L187.911 203.259L188.657 201.572C189.628 199.377 189.366 198.637 188.255 200.434C187.779 201.204 186.181 202.791 184.703 203.96C180.24 207.491 177.527 210.483 176.031 213.521C174.506 216.621 173.558 220.526 173.581 223.62C173.597 225.714 174.182 229.384 174.262 227.886C174.337 226.474 178.005 219.622 179.668 217.788L181.265 216.026L181.297 220.293C181.367 229.671 183.808 236.838 188.771 242.241L190.499 244.122L188.63 241.19C185.385 236.1 184.241 231.978 184.579 226.597C184.904 221.407 187.484 215.823 191.63 211.336C194.164 208.593 194.123 208.577 193.972 212.25L193.836 215.532L194.526 213.615C195.206 211.728 197.684 207.356 199.065 205.611L199.771 204.718L199.985 206.739C200.103 207.851 200.54 209.522 200.956 210.453L201.713 212.146L201.746 210.265C201.78 208.249 202.477 206.437 202.542 208.196C202.56 208.713 202.804 209.729 203.083 210.453L203.59 211.77L203.619 210.418C203.652 208.844 204.683 205.678 205.94 203.288C206.744 201.759 206.832 201.695 206.945 202.553C207.29 205.157 209.177 210.005 210.805 212.466C213.445 216.458 217.649 220.263 221.647 222.279C222.754 222.837 223.588 223.366 223.5 223.453C223.256 223.698 219.194 222.571 216.728 221.575C215.518 221.086 214.674 220.88 214.854 221.118C215.034 221.356 216.28 222.99 217.622 224.748C222.196 230.74 223.402 233.195 224.867 239.494C225.577 242.546 226.277 244.516 227.201 246.057C228.784 248.698 231.186 251.257 232.99 252.223C235.842 253.752 230.549 252.665 226.816 250.957C225.66 250.427 224.714 250.144 224.714 250.327C224.714 250.51 224.849 250.744 225.015 250.847C225.359 251.059 226.844 255.602 228.289 260.862C230.368 268.426 234.835 272.471 241.504 272.826C247.058 273.122 251.157 271.014 254.892 265.94L256 264.435L255.749 265.94C254.921 270.914 253.167 274.434 249.872 277.728C247.405 280.195 244.161 281.799 240.455 282.384L237.576 282.838L238.618 284.358C242.407 289.887 243.695 296.579 242.195 302.944C241.299 306.743 240.941 306.879 241.162 303.337C241.546 297.188 239.782 292.446 234.899 286.497C233.196 284.423 222.416 275.013 223.302 276.374C225.983 280.495 228.688 286.776 230.012 291.956C230.92 295.512 231.086 300.109 230.716 311.458C230.555 316.397 230.6 316.848 231.439 318.704C232.001 319.947 233.149 321.438 234.529 322.716C239.032 326.884 245.199 327.742 250.771 324.975C253.09 323.824 252.768 324.526 249.583 327.564C242.363 334.451 230.988 334.281 223.526 327.174L221.243 325.001L221.84 326.433C222.168 327.221 222.798 328.374 223.24 328.994C224.495 330.757 223.806 330.698 222.013 328.889C219.207 326.059 217.631 321.744 217.466 316.442C217.418 314.872 217.26 313.797 217.116 314.052C216.377 315.363 214.933 324.126 214.933 327.301C214.933 329.776 215.994 334.486 216.999 336.469C218.334 339.104 221.017 341.845 223.655 343.269C225.822 344.439 226.31 344.552 229.228 344.557C230.986 344.561 232.933 344.424 233.554 344.255L234.682 343.948L233.554 344.929C231.769 346.481 227.382 348.433 224.714 348.864C221.661 349.357 220.599 349.333 217.707 348.704ZM176.75 342.493C176.452 342.011 176.186 342.011 176.186 342.493C176.186 342.7 176.365 342.87 176.584 342.87C176.804 342.87 176.878 342.7 176.75 342.493ZM176.943 341.196C176.429 340.912 175.847 340.777 175.652 340.898C175.267 341.136 176.394 341.68 177.315 341.701C177.625 341.708 177.458 341.481 176.943 341.196ZM177.428 340.288C177.541 340.573 177.645 340.611 177.661 340.372C177.677 340.136 177.358 339.544 176.951 339.055C176.544 338.567 176.205 338.369 176.199 338.615C176.191 338.862 176.348 339.163 176.546 339.286C176.744 339.408 176.812 339.799 176.698 340.154C176.539 340.652 176.575 340.683 176.857 340.288C177.167 339.855 177.255 339.855 177.428 340.288ZM174.406 347.045C174.678 346.326 175.004 346.027 175.367 346.166C175.832 346.344 175.822 346.445 175.298 346.827C174.959 347.076 174.681 347.472 174.681 347.707C174.681 347.943 174.527 348.136 174.338 348.136C174.146 348.136 174.176 347.654 174.406 347.045ZM175.606 345.478C175.201 344.823 175.663 344.684 176.179 345.306C176.475 345.663 176.504 345.879 176.254 345.879C176.034 345.879 175.743 345.698 175.606 345.478ZM126.313 319.421C126.923 317.486 126.94 313.49 126.354 310.159C125.272 304.013 122.972 299.081 118.701 293.748C117.602 292.376 116.775 291.181 116.864 291.092C117.168 290.788 121.255 294.376 122.621 296.146C124.241 298.245 124.123 297.462 122.193 293.31C120.47 289.602 119.484 288.248 113.903 281.928C111.254 278.928 108.191 275.099 107.096 273.419C105.062 270.299 102.861 265.385 102.792 263.809C102.763 263.159 102.667 263.273 102.421 264.247C101.984 265.982 102.618 271.413 103.587 274.229C104.491 276.856 106.588 280.792 108.19 282.868C108.829 283.696 109.535 284.62 109.759 284.923C110.325 285.687 106.828 283.653 104.362 281.783C100.688 278.999 97.4499 273.763 96.2478 268.665C94.625 261.782 96.1474 254.428 101.562 242.993L102.631 240.736L102.895 243.745C103.825 254.333 107.818 262.717 116.792 272.927C123.513 280.573 128.401 288.607 129.936 294.53C130.928 298.358 131.299 305.362 130.693 308.839C130.17 311.843 128.459 316.452 127.068 318.606C126.534 319.433 126.194 319.8 126.313 319.421ZM30.2516 273.601C29.1271 273.415 28.146 273.201 28.0712 273.126C27.9966 273.051 28.7473 272.876 29.7396 272.737C33.6233 272.192 39.5571 269.732 44.2918 266.703C55.1994 259.726 63.3856 247.723 65.7702 235.211C66.587 230.926 66.5219 223.888 65.6002 216.848C64.7381 210.263 64.654 206.926 65.2432 202.69C66.1572 196.119 68.6971 190.774 73.4416 185.437C74.9133 183.782 77.2421 181.158 78.6169 179.606C81.7984 176.015 84.8306 171.407 86.3314 167.881C87.6359 164.817 89.4435 158.04 89.8656 154.632C90.1997 151.935 90.434 152.26 91.7192 157.206C92.4222 159.912 92.6736 161.839 92.6736 164.521C92.6736 172.429 90.2762 177.275 81.0553 188.005C74.7057 195.394 72.5989 198.968 70.944 205.157C70.0868 208.363 69.9796 209.486 69.9715 215.344C69.9673 218.964 70.1318 222.604 70.3387 223.432C70.697 224.864 70.727 224.774 70.9633 221.551C71.441 215.038 73.6501 208.993 77.5038 203.653C79.4176 201.001 86.1734 193.525 86.656 193.525C86.8223 193.525 86.4776 194.414 85.8898 195.5C85.3021 196.586 84.4315 198.829 83.955 200.484C82.7557 204.651 82.7498 213.649 83.9408 222.42C85.2447 232.024 84.9977 238.224 83.0421 244.972C81.3455 250.827 78.4631 255.817 74.0502 260.539C71.8318 262.913 67.2146 266.881 66.6705 266.881C66.4616 266.881 66.9368 266.094 67.7265 265.133C69.6081 262.842 70.5021 261.376 72.5095 257.288C74.9452 252.328 76.3797 247.348 77.0606 241.488C77.3866 238.682 77.1419 238.873 76.3357 242.053C74.1655 250.611 65.6247 262.196 57.6877 267.346C53.6063 269.994 52.1704 270.705 48.4723 271.909C42.5801 273.828 35.5539 274.481 30.2516 273.601ZM122.976 268.269C118.476 265.921 114.335 262.08 111.946 258.04C109.958 254.679 107.914 248.485 107.325 244.041C106.601 238.58 107.05 230.57 108.445 224.027C109.082 221.044 109.645 218.561 109.696 218.51C109.748 218.458 109.79 223.015 109.79 228.636C109.79 237.798 109.879 239.295 110.651 243.106C112.016 249.84 113.915 254.531 117.456 259.914C119.193 262.555 124.215 267.941 126.342 269.445C128.239 270.786 126.908 270.321 122.976 268.269ZM13.299 265.19C9.46269 264.324 5.62976 262.235 2.93607 259.541C-0.233958 256.371 -0.955008 255.015 1.60548 257.039C14.0993 266.915 36.674 253.602 41.8674 233.296C42.2693 231.725 42.6975 228.947 42.8189 227.124L43.0397 223.808L42.2613 225.649C38.8276 233.769 33.3253 238.83 25.7069 240.877C24.1585 241.292 23.21 241.431 23.5991 241.184C26.4244 239.394 28.8654 237.295 30.3099 235.415C31.9707 233.252 33.7965 230.073 33.5302 229.807C33.4558 229.732 32.7406 230.346 31.9409 231.17C29.6677 233.512 25.5413 236.051 21.9955 237.29C17.4871 238.866 11.1072 239.143 6.76694 237.953C3.98387 237.189 0.389449 235.623 0.00574992 235.006C-0.0932068 234.847 1.09711 234.773 2.651 234.842C10.0811 235.171 15.8347 231.783 21.1281 223.961L23.2679 220.798L26.2774 219.822L29.2867 218.846L24.6899 219.027C20.2569 219.201 17.1191 218.868 14.0514 217.895C12.7752 217.491 12.8503 217.458 16.4966 216.838C20.1011 216.224 24.0538 214.893 25.704 213.737C26.4279 213.23 26.3271 213.179 24.2419 212.989C21.2828 212.721 20.753 212.353 22.4746 211.761C26.5535 210.359 31.7365 206.165 36.4129 200.483C38.2858 198.208 41.1934 194.94 42.8744 193.221C44.5554 191.502 45.6913 190.188 45.3987 190.3C45.1061 190.412 42.9693 190.598 40.6504 190.713L36.4342 190.921L39.2556 189.834C50.2594 185.595 60.0668 177.962 64.7361 170.004C66.5742 166.872 67.8195 163.309 69.179 157.295C71.2612 148.084 73.4093 143.136 77.1393 138.958L78.9429 136.938L77.4382 137.844C65.4285 145.077 62.1167 148.994 57.3982 161.55C53.2495 172.589 47.3047 180.697 39.4962 185.966C33.1255 190.265 27.961 191.969 20.4465 192.25L15.7442 192.426L18.0979 191.305C26.5404 187.283 33.6237 180.369 39.5756 170.342C41.7686 166.648 43.5112 162.379 45.2936 156.334C48.7826 144.501 51.4551 139.476 57.6053 133.187L60.5099 130.217L58.2528 131.638C49.6036 137.083 44.3596 144.082 39.8513 156.199C36.7783 164.458 34.2183 168.815 30.1537 172.705C25.2343 177.412 21.4161 179.025 15.1799 179.027C12.0145 179.027 10.7861 178.863 8.99483 178.192C6.03844 177.085 5.69282 176.663 7.91625 176.876C10.6559 177.137 13.9098 176.392 17.2489 174.739C20.8652 172.949 22.5252 171.618 24.7587 168.715C27.3342 165.368 28.7732 162.111 31.6907 153.027C33.1629 148.444 35.1416 143.147 36.0877 141.257C39.6086 134.224 44.6899 128.758 54.4021 121.558C57.6092 119.18 61.5408 115.906 63.1389 114.282C69.4456 107.873 72.5402 101.049 72.8306 92.9126L72.924 90.2956L77.062 88.4968C79.3379 87.5075 81.3451 86.6961 81.5224 86.6936C81.6997 86.6894 81.7302 86.9855 81.5902 87.3475C81.4502 87.7096 80.2602 92.2379 78.9458 97.4104C76.6857 106.305 74.3468 112.823 73.1505 113.563C72.9225 113.703 72.736 113.962 72.736 114.138C72.736 114.572 81.2021 110.022 85.15 107.466C87.3631 106.033 90.1964 103.549 94.3532 99.3949C101.035 92.7183 103.946 90.5817 112.862 85.8096C115.794 84.2408 119.325 82.2639 120.709 81.4165C122.094 80.5692 124.816 79.1024 126.759 78.1569C128.702 77.2116 130.292 76.3646 130.292 76.2749C130.292 76.1852 130.165 76.1893 130.01 76.2834C129.855 76.3783 128.119 76.6492 126.154 76.8855C124.188 77.1218 120.956 77.6445 118.971 78.047C105.577 80.7633 98.2933 84.9808 92.8398 93.1783C88.1268 100.263 83.998 104.78 79.9605 107.269C78.8836 107.933 78.0025 108.386 78.0025 108.277C78.0025 108.168 78.5273 107.316 79.1687 106.383C80.8014 104.01 82.5253 100.135 84.5832 94.2121C87.8628 84.7731 89.2677 83.1139 96.2979 80.3774C105.924 76.6303 114.536 74.025 134.618 68.7841C158.649 62.5126 156.905 62.8829 162.456 62.873C166.739 62.8659 167.883 63.0075 171.672 64.0181C174.051 64.6527 176.073 65.0994 176.165 65.0108C176.364 64.8181 174.369 62.9545 172.113 61.2258C170.708 60.1495 170.579 59.9399 171.172 59.6969C171.551 59.542 173.468 59.4153 175.434 59.4153C179.375 59.4153 179.652 59.5131 184.218 62.5254C185.635 63.4604 188.767 65.1956 191.177 66.3815C196.368 68.9355 198.752 71.0857 200.605 74.8855C202.377 78.5206 202.986 81.89 202.806 87.0647C202.628 92.1967 201.873 94.6403 199.3 98.4145C196.917 101.91 196.465 102.185 197.335 99.6099C199.525 93.1221 198.551 84.7452 194.945 79.0656C193.347 76.5485 190.485 73.4867 187.848 71.4728C184.69 69.0619 184.479 69.049 186.613 71.397C191.362 76.621 193.501 84.4643 192.206 91.9092C191.551 95.6815 190.889 97.5072 190.869 95.603C190.845 93.4677 189.609 89.0466 188.165 85.9368C184.72 78.5181 179.129 73.4724 170.543 70.0339C165.284 67.9278 164.709 67.9316 167.722 70.0527C173.796 74.3283 179.3 82.009 182.181 90.2292C182.827 92.0732 183.307 93.7276 183.248 93.9056C183.188 94.0836 182.39 93.1991 181.473 91.9401C177.722 86.7892 170.986 81.2568 164.32 77.8519C159.003 75.1363 155.535 74.1605 150.557 73.9802C145.521 73.7977 141.95 74.5024 137.807 76.4961C136.467 77.141 135.709 77.5563 136.123 77.419C136.537 77.2816 139.1 77.0914 141.819 76.9962C147.159 76.809 151.143 77.3707 154.869 78.8363C159.728 80.7476 166.474 86.5162 170.109 91.8694C170.969 93.1352 171.672 94.2488 171.672 94.344C171.672 94.4393 168.921 93.1114 165.559 91.3932C151.558 84.2376 140.796 81.7592 131.217 83.484C127.464 84.1598 121.298 86.0718 123.897 85.754C124.621 85.6654 125.981 85.4961 126.918 85.3776C129.358 85.0693 135.487 85.8327 139.274 86.9164C143.552 88.141 149.962 91.2944 154.793 94.5519C159.033 97.4113 161.462 99.3554 160.198 98.8793C158.46 98.2245 149.296 95.9926 144.587 95.0774C140.331 94.2503 138.442 94.0876 132.925 94.0735C125.934 94.0554 122.803 94.4843 116.415 96.3346C108.209 98.7114 99.9728 103.655 93.0499 110.36C91.3133 112.042 90.807 112.673 91.7332 112.002C94.537 109.969 96.9872 108.557 101.326 106.476C111.731 101.485 120.512 99.8944 133.489 100.651C136.8 100.844 139.751 101.041 140.048 101.087C141.258 101.278 127.38 108.161 119.383 111.336C116.383 112.527 108.471 115.335 101.801 117.577C95.1318 119.818 87.8657 122.505 85.6546 123.548C81.0638 125.713 75.3875 129.419 72.3598 132.228L70.2908 134.148L71.9836 133.04C77.4864 129.441 84.7016 127.262 97.7521 125.257C105.696 124.037 110.628 123.046 113.543 122.084C114.779 121.676 115.84 121.391 115.899 121.45C116.124 121.675 106.609 126.568 102.642 128.267C94.1649 131.899 89.4708 134.702 85.2885 138.628C79.0599 144.475 74.8671 150.719 72.2189 158.091C70.9432 161.643 70.9787 161.878 72.3749 159.124C75.4169 153.125 82.0863 146.772 89.042 143.247L91.6174 141.941L90.4744 143.375C87.4583 147.158 86.0183 150.428 83.6316 158.916C82.2302 163.899 80.2885 168.323 77.9973 171.752C77.116 173.072 72.9875 177.537 68.8226 181.675C60.813 189.633 58.7788 192.222 56.1774 197.774C53.2729 203.972 52.5167 209.737 53.0707 221.459C53.5826 232.292 52.7719 237.94 49.8098 244.179C47.6435 248.741 45.9786 251.142 42.4271 254.827C37.6022 259.832 32.6605 262.846 26.2874 264.672C22.7725 265.678 16.5625 265.927 13.299 265.19ZM142.567 243.366C138.609 241.105 136.26 239.37 133.164 236.423C122.341 226.119 118.769 212.492 122.659 196.346C123.514 192.796 123.694 192.369 123.929 193.337C124.08 193.958 124.834 197.513 125.605 201.237C128.305 214.283 128.858 216.602 130.159 220.342C132.811 227.96 137.9 236.547 143.081 242.147C144.564 243.75 145.722 245.061 145.653 245.059C145.584 245.059 144.195 244.296 142.567 243.366ZM89.7026 241.959C89.8752 241.079 90.357 236.882 90.7735 232.631C91.8478 221.663 93.3315 216.334 97.5402 208.326C99.4187 204.752 102.828 199.433 104.497 197.475C105.403 196.412 105.385 196.511 104.186 199.191C102.394 203.198 100.435 209.462 99.2509 214.967C97.3153 223.97 95.983 229.095 94.7524 232.272C93.3939 235.78 89.8092 243.557 89.5511 243.557C89.4619 243.557 89.53 242.838 89.7026 241.959ZM126.442 187.506C124.845 183.128 124.189 179.464 124.151 174.716C124.11 169.715 124.438 168.002 126.953 160.045C129.034 153.464 130.117 148.553 130.521 143.869L130.797 140.671L131.853 146.502C132.498 150.057 133.004 154.462 133.151 157.788C133.447 164.513 132.949 167.673 130.325 175.703C128.631 180.885 127.818 184.753 127.564 188.823C127.471 190.321 127.466 190.316 126.442 187.506ZM181.079 186.848C181.083 185.603 180.132 178.718 179.373 174.473C178.916 171.919 176.382 165.278 174.734 162.315C174.566 162.012 169.914 159.307 164.398 156.305C158.881 153.303 154.368 150.746 154.368 150.623C154.368 150.5 156.727 149.508 159.611 148.418C163.343 147.008 165.106 146.516 165.724 146.71C166.202 146.861 169.214 148.17 172.418 149.621C178.923 152.566 178.123 152.484 184.167 150.812C185.557 150.428 186.806 150.226 186.944 150.363C187.353 150.772 189.336 159.209 189.927 163.054C190.68 167.954 190.703 181.322 189.958 181.607C189.671 181.718 187.637 183.175 185.439 184.845C183.241 186.516 181.36 187.882 181.259 187.882C181.159 187.882 181.077 187.417 181.079 186.848ZM215.775 172.365L216.919 171.142L212.263 170.883C209.702 170.74 205.448 170.338 202.809 169.988C198.913 169.472 197.902 169.442 197.434 169.831C196.753 170.396 196.81 170.445 195.782 168.407C195.171 167.196 195.091 166.759 195.454 166.631C196.375 166.306 203.745 165.688 206.697 165.688C208.33 165.688 209.666 165.612 209.666 165.52C209.666 165.25 199.573 151.961 195.833 147.307L192.398 143.033L194.637 138.566C195.869 136.11 196.876 134.02 196.876 133.922C196.876 133.824 195.141 133.219 193.02 132.577C190.9 131.935 186.741 130.65 183.78 129.721L178.395 128.032L172.713 129.179C169.588 129.809 166.981 130.275 166.919 130.213C166.857 130.151 168.399 128.924 170.346 127.486C172.293 126.048 173.896 124.671 173.908 124.426C173.919 124.18 172.745 120.541 171.297 116.338C169.85 112.135 168.665 108.349 168.664 107.925C168.664 107.439 170.242 105.594 172.929 102.94C176.684 99.2317 177.349 98.7271 178.477 98.727C179.183 98.7269 182.25 99.3337 185.293 100.075L190.827 101.424L191.58 103.437C191.994 104.544 193.375 108.465 194.649 112.151C197.466 120.304 198.613 122.898 201.031 126.586C202.056 128.15 202.895 129.637 202.895 129.891C202.895 130.502 202.119 131.694 198.978 135.908C196.592 139.108 196.403 139.49 196.855 140.214C197.128 140.65 202.254 147.509 208.246 155.455L219.142 169.903L217.148 171.745C214.892 173.83 214.047 174.212 215.775 172.365ZM30.2062 143.493C29.8418 134.111 31.5583 125.312 34.9657 119.094C39.2708 111.239 44.9731 105.611 54.5215 99.794C58.8964 97.1285 67.9714 92.332 68.6394 92.332C69.182 92.332 69.0248 93.9484 68.2701 96.129C66.517 101.194 62.5005 106.213 54.4744 113.369C40.1464 126.144 34.0714 133.687 31.4263 141.988C30.9978 143.333 30.5661 144.687 30.4669 144.998C30.3678 145.308 30.2504 144.631 30.2062 143.493ZM95.3069 137.964C97.623 137.13 106.967 132.867 109.414 131.528C113.779 129.138 119.183 124.915 126.278 118.345C134.105 111.099 138.099 107.956 142.256 105.774C145.362 104.143 149.704 102.59 150.087 102.973C150.184 103.071 149.184 103.921 147.863 104.864C144.688 107.129 141.167 110.601 138.064 114.527C132.863 121.106 131.918 122.195 129.208 124.735L126.431 127.338L130.148 125.615C134.895 123.415 137.617 121.892 139.508 120.38C141.778 118.564 142.124 118.427 141.345 119.653C135.592 128.713 121.354 135.579 103.959 137.68C99.748 138.189 94.174 138.371 95.3069 137.964ZM42.4532 92.332C42.3253 92.1251 42.4 91.9558 42.619 91.9558C42.8382 91.9558 43.0174 92.1251 43.0174 92.332C43.0174 92.814 42.7511 92.814 42.4532 92.332ZM46.2236 91.329C46.0346 90.8705 45.8804 90.7969 45.7637 91.1094C45.6671 91.368 45.3059 91.5744 44.961 91.5682C44.4433 91.5582 44.4651 91.4793 45.0864 91.1125C46.5018 90.2769 47.4417 90.5077 46.8068 91.535C46.5803 91.9016 46.4389 91.8516 46.2236 91.329ZM47.4254 90.3991C46.6289 89.9533 46.5854 89.4479 47.3436 89.4479C47.6539 89.4479 47.9079 89.599 47.9079 89.7836C47.9079 89.9682 48.0799 90.0129 48.2902 89.883C48.5004 89.753 48.5598 89.4644 48.4221 89.2416C48.2518 88.966 48.52 88.924 49.2616 89.1101C50.5158 89.4249 50.7635 89.6016 50.4248 89.9404C50.2919 90.0733 49.9403 89.9806 49.6436 89.7343C49.2137 89.3776 48.9993 89.4363 48.5879 90.0236C48.1999 90.5776 47.9111 90.6709 47.4254 90.3991ZM39.2556 90.0749C39.2556 89.868 39.4249 89.6987 39.6318 89.6987C39.8387 89.6987 40.008 89.868 40.008 90.0749C40.008 90.2818 39.8387 90.451 39.6318 90.451C39.4249 90.451 39.2556 90.2818 39.2556 90.0749ZM37.3747 89.3447C37.3747 89.1256 37.544 88.9463 37.7509 88.9463C38.2329 88.9463 38.2329 89.2127 37.7509 89.5106C37.544 89.6384 37.3747 89.5638 37.3747 89.3447ZM44.8983 89.1344C44.5148 88.6723 44.5405 88.5701 45.0404 88.5701C45.3761 88.5701 45.6507 88.8241 45.6507 89.1344C45.6507 89.8449 45.488 89.8449 44.8983 89.1344ZM50.3777 88.8887C49.9705 88.4962 49.3632 88.2783 48.9987 88.394C48.6405 88.5077 48.2384 88.4244 48.1054 88.2093C47.9723 87.9939 48.061 87.8178 48.3026 87.8178C48.5802 87.8178 48.657 87.4804 48.5115 86.9004C48.3848 86.3958 48.4383 85.8859 48.6304 85.7672C48.8223 85.6485 49.0572 85.8498 49.1524 86.2144C49.2782 86.6966 49.3372 86.6357 49.3689 85.9907C49.4002 85.3562 49.2555 85.1643 48.8603 85.3159C48.5566 85.4325 48.2081 85.366 48.0857 85.1681C47.7428 84.6132 47.1555 84.7424 47.1555 85.3726C47.1555 85.6829 47.3671 85.9395 47.6257 85.9426C47.9618 85.9469 47.9462 86.0431 47.5708 86.2808C47.2548 86.4809 47.1476 86.8785 47.3014 87.2795C47.45 87.6667 47.3548 88.0741 47.0741 88.2522C46.4186 88.6681 46.0269 88.6463 46.0269 88.194C46.0269 87.9871 46.3003 87.8178 46.6344 87.8178C47.1837 87.8178 47.18 87.7233 46.5954 86.831C46.2398 86.2883 46.1113 85.9446 46.3097 86.0673C46.5238 86.1997 46.5855 85.8742 46.4615 85.2672C46.3158 84.5547 46.2098 84.444 46.1121 84.9024C45.9514 85.6562 45.4441 85.7632 45.0505 85.1264C44.8852 84.8589 44.9472 84.7942 45.2121 84.9579C45.8697 85.3643 45.2819 83.9922 44.4536 83.1871C43.6784 82.4338 43.8474 81.802 44.8265 81.7932C45.3345 81.7889 45.3582 81.7212 44.9443 81.459C44.6591 81.2784 44.5349 80.9542 44.6682 80.7384C44.8016 80.5227 44.7386 80.2398 44.5283 80.1099C44.318 79.9799 44.146 80.0628 44.146 80.2942C44.146 80.5255 43.9767 80.6102 43.7698 80.4823C43.5629 80.3545 43.3936 80.415 43.3936 80.6168C43.3936 80.8186 43.5759 81.0446 43.7987 81.1188C44.0214 81.1931 43.8399 81.5831 43.3953 81.9855L42.5868 82.7172L42.7081 81.6392C42.7822 80.9803 42.6311 80.4919 42.3197 80.3831C41.9434 80.2518 41.8801 80.4262 42.0778 81.0491C42.2767 81.6757 42.2237 81.8177 41.8721 81.6004C41.5963 81.43 41.226 81.5396 40.9854 81.8628C40.7581 82.168 40.2337 82.6119 39.8199 82.8492C39.1895 83.2108 39.1706 83.2826 39.7036 83.2922C40.0534 83.2978 40.4299 83.4495 40.5401 83.628C40.6503 83.8064 40.3641 83.9333 39.904 83.9101C39.4439 83.8868 39.0844 83.6563 39.105 83.3977C39.1258 83.139 39.168 82.6554 39.199 82.3229C39.234 81.9497 39.4714 81.8012 39.8198 81.9349C40.2047 82.0827 40.384 81.9139 40.384 81.4037C40.384 80.7931 40.2108 80.6995 39.4393 80.8931C38.6747 81.085 38.539 81.0147 38.7272 80.5241C38.8552 80.1907 38.7865 79.918 38.5747 79.918C38.3629 79.918 38.1231 80.1177 38.0417 80.3619C37.8704 80.8757 36.6222 80.5062 36.6222 79.9416C36.6222 79.7347 36.8932 79.6694 37.2244 79.7965C37.5557 79.9236 37.9722 79.7922 38.1501 79.5044C38.4145 79.0765 38.5685 79.1111 38.9951 79.6946C39.3551 80.1869 39.5998 80.2739 39.7845 79.975C39.9318 79.7367 39.9619 79.3956 39.8515 79.217C39.741 79.0384 40.7022 78.7969 41.9872 78.6803C43.5764 78.5362 44.4137 78.6101 44.6052 78.9111C44.798 79.2142 44.8885 79.166 44.8925 78.7583C44.8982 78.2026 47.8537 75.5121 48.2973 75.6593C48.4082 75.6962 48.5185 75.4421 48.5426 75.0948C48.5666 74.7475 49.0177 73.3359 49.5451 71.958C51.4868 66.8845 51.9405 55.595 50.3145 52.811C49.4271 51.2915 47.3999 49.8234 46.1892 49.8234C45.2141 49.8234 45.1021 49.1068 44.7196 40.4188C44.6057 37.8326 44.4069 34.251 44.2778 32.4597L44.0432 29.2029L51.1768 36.2216L58.3105 43.2402L57.5552 44.3342C57.1198 44.9651 56.7296 46.2774 56.6337 47.4335C56.3947 50.3155 57.7863 52.9893 61.4203 56.6301C63.6071 58.8212 65.0169 59.8544 67.4692 61.0631C74.8794 64.7156 80.5763 63.8741 86.0939 58.3123C90.6726 53.6969 93.2417 46.9842 92.9907 40.2915C92.8827 37.41 92.7176 36.6433 91.9834 35.614C91.0403 34.2917 88.6856 32.8952 87.3991 32.8952C86.6528 32.8952 86.6211 32.7541 86.8275 30.3559C87.3364 24.4422 87.7801 17.0944 87.7815 14.5563C87.7815 13.0563 87.9322 11.829 88.1146 11.829C88.2969 11.829 88.9262 12.4638 89.513 13.2396C91.0304 15.2459 95.7488 20.8834 98.9666 24.5347L101.71 27.6478L100.901 28.7427C100.431 29.3777 100.016 30.6221 99.9118 31.7059C99.6348 34.5878 101.014 37.1983 104.808 40.9718C109.9 46.0368 114.548 48.2923 120.511 48.592C123.549 48.7446 124.409 48.6491 126.244 47.9553C131.258 46.0595 134.93 42.0038 136.852 36.2392C138.095 32.5109 138.546 27.3968 137.824 25.2106C137.197 23.3087 135.428 21.3729 133.838 20.8482C132.551 20.4234 132.534 20.3912 132.725 18.6622C132.832 17.6971 133.091 14.3682 133.301 11.2647C133.511 8.16119 133.78 4.40662 133.898 2.92122L134.113 0.220542L139.918 8.85732C145.577 17.2777 145.71 17.5197 145.2 18.5174C144.242 20.3929 144.127 21.882 144.77 24.0933C146.299 29.3548 152.086 35.8243 157.565 38.3991C161.389 40.1962 164.888 39.2993 166.561 36.0927C168.002 33.3299 167.771 24.4237 166.156 20.4812C165.859 19.757 165.048 18.572 164.354 17.8479L163.092 16.5312L162.857 10.3242C162.728 6.91038 162.525 3.10153 162.406 1.86012C162.176 -0.553796 162.527 -0.620151 163.401 1.67203C163.677 2.3962 165.081 5.52791 166.522 8.63141L169.14 14.2741L169.209 18.2241C169.283 22.5539 168.721 20.4473 175.585 42.0975C177.157 47.0553 178.443 51.3046 178.443 51.5403C178.443 51.8052 177.32 52.0556 175.503 52.1956C156.697 53.6459 118.685 63.2354 88.7235 74.0884C79.8308 77.3096 59.3834 85.5611 56.9361 86.9161C54.8762 88.0566 52.4372 88.8993 52.2188 88.5459C52.095 88.3456 51.8539 88.2682 51.683 88.3738C51.512 88.4794 51.2698 88.299 51.1447 87.973C50.8215 87.1308 50.835 87.1144 51.6695 87.3326C52.0833 87.4408 52.4219 87.6889 52.4219 87.8839C52.4219 88.0789 52.6022 88.127 52.8226 87.9908C53.2185 87.7461 52.2375 86.3079 51.7188 86.3726C50.8824 86.477 50.8614 86.2108 51.6696 85.7489C52.5412 85.2506 52.5525 85.2103 51.824 85.1979C51.3427 85.1894 50.8719 85.5492 50.6095 86.1251C50.3738 86.6423 50.0081 87.0655 49.7968 87.0655C49.5854 87.0655 49.4125 87.2348 49.4125 87.4417C49.4125 87.6486 49.6665 87.8179 49.9768 87.8179C50.2871 87.8179 50.8665 88.1433 51.2643 88.5412C52.2282 89.505 51.3672 89.8425 50.3777 88.8887ZM54.4327 86.4849C54.3102 86.1656 54.1293 85.9851 54.0307 86.0837C53.932 86.1824 53.963 86.4435 54.0994 86.6642C54.4703 87.2644 54.6871 87.1478 54.4327 86.4849ZM53.5505 85.9368C53.5505 85.7299 53.3713 85.5607 53.1521 85.5607C52.9331 85.5607 52.8584 85.7299 52.9863 85.9368C53.2842 86.4189 53.5505 86.4189 53.5505 85.9368ZM56.7481 85.9368C56.6203 85.7299 56.314 85.5633 56.0676 85.5664C55.7984 85.5707 55.8448 85.7178 56.1839 85.9368C56.9066 86.4039 57.0367 86.4039 56.7481 85.9368ZM47.5317 84.1312C47.5317 83.5995 46.6494 82.9274 45.9517 82.9274C45.5792 82.9274 45.2746 82.7299 45.2746 82.4885C45.2746 82.2471 45.1658 82.1584 45.0328 82.2913C44.6363 82.6878 45.6615 83.652 46.2425 83.4291C46.5702 83.3034 46.7792 83.4588 46.7792 83.8276C46.7792 84.1601 46.9485 84.4321 47.1554 84.4321C47.3623 84.4321 47.5317 84.2968 47.5317 84.1312ZM52.0458 83.6395C52.0458 83.1557 51.8281 83.2237 51.2863 83.8765C50.8888 84.3555 50.912 84.4105 51.4283 84.2124C51.7679 84.082 52.0458 83.8243 52.0458 83.6395ZM56.3294 83.2347C56.2207 83.0589 55.9743 83.0125 55.7817 83.1315C55.2895 83.4357 55.3449 83.5543 55.9792 83.5543C56.2804 83.5543 56.438 83.4105 56.3294 83.2347ZM46.4031 81.5886C46.4031 81.4973 46.2338 81.4227 46.0269 81.4227C45.82 81.4227 45.6507 81.6019 45.6507 81.821C45.6507 82.0402 45.82 82.1148 46.0269 81.9869C46.2338 81.8591 46.4031 81.6798 46.4031 81.5886ZM41.8024 79.3298C41.7459 79.2734 41.3622 79.4739 40.9497 79.7755C40.3098 80.2433 40.2819 80.3746 40.7595 80.6698C41.1712 80.9242 41.3969 80.8063 41.6122 80.2241C41.7733 79.7887 41.8588 79.3863 41.8024 79.3298ZM49.7887 79.5418C49.7887 79.3349 49.6095 79.1656 49.3903 79.1656C49.1713 79.1656 49.0966 79.3349 49.2244 79.5418C49.5224 80.0238 49.7887 80.0238 49.7887 79.5418ZM50.7132 79.1396C50.3907 78.6178 50.1649 78.7151 50.1649 79.3759C50.1649 79.6984 50.337 79.856 50.5472 79.7261C50.7575 79.5961 50.8322 79.3322 50.7132 79.1396ZM63.613 75.5781C64.8248 74.7293 65.369 72.3651 64.7107 70.8093C63.9738 69.068 62.845 68.1894 61.2878 68.1452C59.6728 68.0994 58.0658 69.1934 57.572 70.6749C57.1416 71.9662 57.7823 74.3689 58.8387 75.4253C59.7412 76.3278 62.4202 76.4136 63.613 75.5781ZM104.937 59.0774C106.027 57.9875 106.216 57.5383 106.216 56.039C106.216 54.596 106.018 54.0819 105.117 53.1801C103.656 51.7193 101.172 51.6274 99.7126 52.98C97.018 55.4773 98.8964 60.2896 102.586 60.3414C103.316 60.3513 104.066 59.9488 104.937 59.0774ZM149.703 47.792C151.143 46.3513 151.363 44.8799 150.411 43.0398C149.796 41.851 148.118 40.795 146.844 40.795C144.882 40.795 143.082 42.7296 143.082 44.8382C143.082 45.9147 144.328 47.9805 145.295 48.5055C146.969 49.4157 148.293 49.2013 149.703 47.792ZM42.5396 88.2221C42.4067 87.7141 42.5058 87.5576 42.8719 87.6981C43.1589 87.8081 43.3936 88.1341 43.3936 88.4223C43.3936 89.2041 42.7574 89.055 42.5396 88.2221ZM36.0426 87.7928C35.6377 87.1376 36.0989 86.9989 36.6148 87.6206C36.9115 87.9781 36.94 88.1939 36.6905 88.1939C36.4705 88.1939 36.179 88.0134 36.0426 87.7928ZM40.3842 87.8176C40.0452 87.5985 39.9987 87.4507 40.2678 87.4472C40.5142 87.4429 40.8205 87.6107 40.9484 87.8176C41.237 88.2847 41.1069 88.2847 40.3842 87.8176ZM44.5222 87.5668C44.5222 87.222 44.6335 87.0513 44.7697 87.1874C44.9059 87.3234 45.2867 87.2246 45.6161 86.9679C46.1328 86.5651 46.1509 86.5832 45.7481 87.0999C45.4913 87.4293 45.3925 87.8102 45.5286 87.9463C45.6647 88.0825 45.4941 88.1938 45.1492 88.1938C44.8044 88.1938 44.5222 87.9117 44.5222 87.5668ZM43.5817 87.0653C43.4539 86.8584 43.5285 86.6891 43.7476 86.6891C43.9667 86.6891 44.146 86.8584 44.146 87.0653C44.146 87.5473 43.8796 87.5473 43.5817 87.0653ZM44.3861 86.1248C44.267 85.8145 44.3155 85.5605 44.4938 85.5605C44.6721 85.5605 44.9154 85.8145 45.0345 86.1248C45.1536 86.4352 45.1051 86.6891 44.9269 86.6891C44.7485 86.6891 44.5052 86.4352 44.3861 86.1248ZM34.8754 85.7009C34.6387 85.6039 34.5385 85.1673 34.6527 84.7307C34.825 84.0716 34.7268 83.9719 34.0728 84.1429C33.6014 84.2662 33.2077 84.1472 33.0921 83.8453C32.9682 83.5226 33.0963 83.4169 33.4439 83.5509C33.7437 83.666 33.9891 83.5727 33.9891 83.3437C33.9891 83.1147 34.1583 82.9273 34.3652 82.9273C34.5721 82.9273 34.7414 83.1812 34.7414 83.4915C34.7414 83.8019 34.8928 84.0558 35.0778 84.0558C35.2628 84.0558 35.3898 84.4789 35.36 84.996C35.3302 85.5131 35.3056 85.923 35.3056 85.9067C35.3056 85.8905 35.1121 85.798 34.8754 85.7009ZM35.8996 85.4038C35.8834 85.0072 35.9721 84.785 36.0972 84.91C36.2222 85.035 36.2356 85.3595 36.127 85.6311C36.0068 85.9312 35.9177 85.842 35.8996 85.4038ZM37.587 85.2946C37.3828 84.7585 37.426 84.7152 37.7975 85.084C38.0546 85.3392 38.1702 85.6427 38.0544 85.7585C37.9385 85.8744 37.7283 85.6656 37.587 85.2946ZM42.3735 85.3684C41.8599 85.0087 41.4759 84.9396 41.3271 85.1803C40.9777 85.7457 40.5096 85.6403 40.5096 84.9962C40.5096 84.6859 40.8061 84.432 41.1684 84.432C41.5309 84.432 42.1375 84.3204 42.5165 84.1839C42.8954 84.0476 43.0782 84.0762 42.9226 84.2475C42.767 84.4188 42.9183 84.869 43.263 85.2479C44.0176 86.0817 43.4933 86.1527 42.3735 85.3684ZM38.6914 84.8081C38.8192 84.6012 39.0931 84.432 39.3 84.432C39.5069 84.432 39.5716 84.6012 39.4437 84.8081C39.3159 85.015 39.0419 85.1844 38.835 85.1844C38.6281 85.1844 38.5635 85.015 38.6914 84.8081ZM43.4581 84.0192C42.7945 82.9566 43.0923 82.7658 44.0788 83.6214C44.5221 84.0058 44.7749 84.43 44.6407 84.5642C44.237 84.968 43.9753 84.8474 43.4581 84.0192ZM36.6223 84.1019C36.6223 83.5233 37.7011 82.8521 38.1676 83.1404C38.4914 83.3406 38.4232 83.5602 37.9241 83.9252C37.1261 84.5087 36.6223 84.5771 36.6223 84.1019ZM41.3662 83.0881C41.2079 82.6755 41.3285 82.5332 41.765 82.6179C42.1092 82.6847 42.4613 82.9508 42.5474 83.2095C42.7777 83.9011 41.633 83.7835 41.3662 83.0881ZM35.964 82.0025C35.964 81.4766 36.1685 81.0464 36.4184 81.0464C36.9684 81.0464 36.9139 82.642 36.3577 82.8274C36.1412 82.8995 35.964 82.5284 35.964 82.0025ZM37.4766 82.3238C37.6016 82.1989 37.9261 82.1855 38.1976 82.2941C38.4977 82.4143 38.4086 82.5034 37.9704 82.5214C37.5738 82.5376 37.3516 82.4489 37.4766 82.3238ZM34.1617 81.7738C33.7568 81.1186 34.218 80.9799 34.7339 81.6016C35.0306 81.9591 35.0592 82.1749 34.8097 82.1749C34.5896 82.1749 34.298 81.9944 34.1617 81.7738ZM37.7509 81.4226C37.7509 80.9405 38.0172 80.9405 38.3152 81.4226C38.443 81.6295 38.3684 81.7988 38.1493 81.7988C37.9302 81.7988 37.7509 81.6295 37.7509 81.4226ZM32.1082 80.8986C32.1082 80.8172 32.3709 80.6499 32.692 80.5267C33.0267 80.3981 33.1778 80.4613 33.0459 80.6745C32.825 81.032 32.1082 81.2032 32.1082 80.8986ZM34.8636 80.7989C35.2016 80.4609 34.362 79.4993 33.9507 79.7535C33.7696 79.8654 33.7352 79.6605 33.8742 79.2981C34.0388 78.8694 34.1814 78.8024 34.2827 79.1062C34.5574 79.9302 35.4988 78.7959 35.4425 77.7088C35.3966 76.8227 35.3744 76.808 35.2283 77.5667C35.0686 78.3957 34.3652 78.7789 34.3652 78.037C34.3652 77.3556 33.7047 77.6451 33.5034 78.4147C33.379 78.8907 33.1007 79.0898 32.7488 78.9547C32.1159 78.7118 32.3231 77.3014 32.9984 77.2558C33.6516 77.2117 34.4847 77.0087 35.2116 76.7164C35.6015 76.5597 35.8699 76.6214 35.8699 76.8682C35.8699 77.0972 36.1139 77.2846 36.412 77.2846C36.7101 77.2846 37.0765 77.4827 37.2261 77.7247C37.409 78.0206 37.2931 78.0861 36.8721 77.9246C36.4223 77.752 36.2461 77.8874 36.2461 78.4063C36.2461 78.8033 35.9499 79.3007 35.5878 79.5116C35.2257 79.7225 35.1357 79.9002 35.3879 79.9064C35.946 79.9208 35.5773 81.0464 35.0146 81.0464C34.7954 81.0464 34.7274 80.9351 34.8636 80.7989ZM31.2599 79.0715C31.159 78.6059 30.9977 77.9711 30.9015 77.6608C30.8054 77.3505 30.7977 77.2235 30.8846 77.3786C30.9713 77.5338 31.3245 77.6742 31.6694 77.6905C32.0142 77.7067 32.1027 77.7996 31.866 77.8966C31.2611 78.1447 31.682 79.4676 32.429 79.666C32.8733 79.784 32.8216 79.843 32.2461 79.8742C31.6999 79.9039 31.3849 79.6475 31.2599 79.0715ZM31.4341 76.654C31.0506 76.5001 31.0446 76.3429 31.406 75.9077C31.7947 75.4394 31.7121 75.3944 30.8574 75.6089C30.0254 75.8177 29.8512 75.735 29.8512 75.131C29.8512 74.7293 29.7243 74.2736 29.5691 74.1184C29.4139 73.9632 29.2799 73.7234 29.2712 73.5855C29.2627 73.4476 28.9663 72.7929 28.6129 72.1308C27.729 70.4747 27.7975 69.43 28.8167 69.0203C29.2823 68.8332 29.4516 68.6694 29.1929 68.6562C28.9343 68.6434 28.7227 68.4019 28.7227 68.1203C28.7227 67.7791 28.3775 67.6541 27.6882 67.7458C27.1192 67.8215 26.8653 67.7839 27.1239 67.6624C27.3825 67.5407 27.5942 67.2014 27.5942 66.9083C27.5942 66.6152 27.7634 66.3753 27.9703 66.3753C28.1772 66.3753 28.3465 66.2028 28.3465 65.992C28.3465 65.7705 27.9477 65.7088 27.4018 65.8458C26.666 66.0304 26.5043 65.9598 26.6707 65.5262C26.8072 65.1706 26.5993 64.895 26.0952 64.7631C25.433 64.59 25.3462 64.683 25.555 65.3409C25.803 66.1224 25.8004 66.1223 24.7674 65.3097C24.1973 64.8612 23.5171 64.4943 23.2559 64.4943C22.8269 64.4943 22.5926 63.6021 21.7243 58.6635C21.5311 57.5646 21.5425 57.5547 22.1595 58.2873C22.776 59.0193 22.7872 59.0092 22.5758 57.9111L22.3585 56.7826L22.8904 57.9111C23.1829 58.5318 23.4298 58.8281 23.4392 58.5694C23.4491 58.3108 23.7101 58.0992 24.0204 58.0992C24.6836 58.0992 24.7289 57.7514 24.1672 56.9707C23.8246 56.4944 23.7944 56.509 23.9731 57.0646C24.2349 57.8784 23.7145 57.9232 23.0667 57.1427C22.7326 56.7402 22.4651 56.6825 22.1931 56.9546C21.6683 57.4793 21.3286 57.4494 21.3054 56.8765C21.2833 56.3326 19.8033 49.641 19.4554 48.5131C19.2454 47.8319 19.9681 48.7151 24.0919 54.1796C24.7519 55.0541 25.4713 55.8806 25.6907 56.0162C26.3131 56.4009 26.1592 56.97 25.4311 56.9763C24.8781 56.9806 24.8615 57.0382 25.3272 57.3327C25.6814 57.5567 25.9695 57.5408 26.1253 57.2887C26.2649 57.0629 26.8141 57.4777 27.4103 58.2593C28.3768 59.5264 28.4784 60.6385 27.5421 59.7022C27.3134 59.4735 26.893 59.376 26.6079 59.4854C26.3228 59.5949 26.0894 59.5331 26.0894 59.3479C26.0894 58.7846 24.6651 58.8656 24.1744 59.457C23.811 59.8948 23.8113 60.1078 24.1744 60.4662C24.4287 60.7161 24.6045 60.7512 24.5653 60.5443C24.4055 59.7025 24.6268 59.6152 25.4886 60.1798C26.0896 60.5737 26.4766 60.6398 26.6393 60.3766C26.7741 60.1585 27.0645 59.98 27.2845 59.98C27.5383 59.98 27.5148 60.1845 27.2202 60.5394C26.6299 61.2506 27.0107 62.8301 27.8501 63.1522C28.4313 63.3753 28.4285 63.3294 27.8193 62.6564C27.3877 62.1796 27.2364 61.6366 27.3955 61.1355C27.731 60.0784 28.4489 60.1394 28.1855 61.2026C28.0478 61.7579 28.1509 61.6735 28.4846 60.9571C28.9558 59.9456 28.9902 60.0982 28.9511 63.0261C28.9202 65.3355 28.7568 66.3139 28.3445 66.6582C27.8634 67.0598 27.8912 67.0926 28.5326 66.8804C28.9464 66.7434 29.1574 66.7719 29.0015 66.9435C28.8456 67.1151 28.9861 67.6646 29.3137 68.1646C29.6413 68.6646 29.8535 69.1186 29.7852 69.1737C29.717 69.2287 29.3225 69.4627 28.9087 69.6938C28.4949 69.925 28.3521 70.1192 28.5914 70.1255C28.8308 70.1312 28.943 70.4561 28.8408 70.8469C28.7387 71.2373 28.8573 71.6817 29.1044 71.8344C29.414 72.0258 29.4853 71.8929 29.3338 71.4066C29.0821 70.5987 29.6619 69.4481 30.1 69.8861C30.2604 70.0466 30.1769 70.3105 29.9145 70.4728C29.5473 70.6997 29.5881 70.8899 30.0917 71.2987C30.6614 71.7611 30.7052 71.7568 30.4305 71.2656C30.1694 70.7986 30.2051 70.7851 30.6373 71.1872C31.0045 71.5288 31.0359 71.7523 30.7432 71.9396C30.1534 72.3171 29.7881 73.678 30.0756 74.4271C30.2956 75.0007 30.3689 74.99 30.8412 74.3158C31.1284 73.9057 31.6999 73.5955 32.1111 73.6265C32.8569 73.6827 33.1962 74.2751 32.4825 74.2751C32.2756 74.2751 32.1063 74.539 32.1063 74.8616C32.1063 75.2135 32.2823 75.3392 32.5464 75.176C32.8465 74.9906 32.9064 75.113 32.7345 75.5608C32.5959 75.922 32.4825 76.373 32.4825 76.5629C32.4825 76.9359 32.1966 76.9606 31.4323 76.6539L31.4341 76.654ZM26.8473 64.0242C26.8516 63.7107 26.9747 63.742 27.2178 64.1181C27.4369 64.4572 27.5847 64.5036 27.5882 64.2344C27.5981 63.5022 26.9613 63.3326 26.462 63.9343C26.1393 64.3231 26.1262 64.4944 26.4193 64.4944C26.6515 64.4944 26.8442 64.2828 26.8473 64.0242ZM25.2428 63.4561C24.8807 63.3762 24.5845 63.1438 24.5845 62.9399C24.5845 62.736 24.7538 62.6737 24.9607 62.8015C25.1676 62.9294 25.3369 62.8729 25.3369 62.6759C25.3369 62.4789 25.0741 62.2169 24.753 62.0937C24.4319 61.9705 24.2515 62.0029 24.352 62.1655C24.4526 62.3282 24.3769 62.7072 24.1835 63.0077C23.8763 63.4853 23.788 63.4853 23.4808 63.0077C23.2875 62.7072 23.2128 62.3263 23.3149 62.1612C23.4169 61.9962 23.3006 61.8611 23.0581 61.8611C22.783 61.8611 22.7016 62.1811 22.8426 62.7075C22.9675 63.1731 23.0718 63.6469 23.0746 63.7606C23.0789 63.8742 23.7146 63.8848 24.4904 63.7843C25.2663 63.6838 25.6049 63.536 25.2428 63.4561ZM26.246 61.7268C25.985 61.0467 24.9607 60.8716 24.9607 61.5072C24.9607 61.7262 25.1312 61.8002 25.3395 61.6714C25.5479 61.5426 25.8227 61.7092 25.9503 62.0416C26.0778 62.374 26.2499 62.5782 26.3326 62.4955C26.4154 62.4127 26.3765 62.0669 26.246 61.7268ZM24.4064 55.5387C24.2905 55.4228 23.987 55.5384 23.7318 55.7955C23.3631 56.1671 23.4062 56.2103 23.9424 56.0061C24.3134 55.8648 24.5222 55.6545 24.4064 55.5387ZM33.1007 75.968C33.3779 75.2454 33.6129 75.2454 33.6129 75.968C33.6129 76.2783 33.4489 76.5322 33.2485 76.5322C33.0481 76.5322 32.9816 76.2783 33.1007 75.968Z"/>
</svg>
